<?xml version="1.0" encoding="UTF-8"?>
<svg version="1.1" xmlns="http://www.w3.org/2000/svg" width="2000" height="2000">
<path d="M0 0 C0.88522339 0.08485657 1.77044678 0.16971313 2.68249512 0.25714111 C16.48870626 1.58249553 30.25009085 3.18346365 44 5 C44.91465027 5.12032593 45.82930054 5.24065186 46.77166748 5.36462402 C141.1747057 17.87604469 233.40479779 44.76176246 338 92 C339.01126953 92.47405273 340.02253906 92.94810547 341.06445312 93.43652344 C371.96908985 107.9758827 401.87334787 124.17036303 431 142 C431.90766113 142.55349121 432.81532227 143.10698242 433.75048828 143.67724609 C454.76394196 156.52460716 475.36841871 170.1673425 495.24755859 184.71875 C497.32284782 186.23604143 499.40603492 187.74227127 501.48828125 189.25 C510.61716375 195.88935479 519.51503475 202.73292701 528.2265625 209.91015625 C531.83211503 212.87840101 535.5008958 215.75849491 539.1875 218.625 C545.37464808 223.45356908 551.38391725 228.46709385 557.33935547 233.57763672 C559.05623967 235.04817 560.77948682 236.51096923 562.50390625 237.97265625 C569.26520386 243.71730107 575.888404 249.57559985 582.37890625 255.625 C584.97570971 258.04142167 584.97570971 258.04142167 587.83984375 260.1875 C588.90912109 261.0846875 588.90912109 261.0846875 590 262 C590 262.66 590 263.32 590 264 C590.54140625 264.21269531 591.0828125 264.42539062 591.640625 264.64453125 C594.85324891 266.49019433 597.20549275 269.03964611 599.75 271.6875 C603.09311573 275.10339104 606.4152993 278.46653253 610.0625 281.5625 C616.55724475 287.11009448 622.72656112 293.2326261 628.25 299.75 C631.77634167 303.89259556 635.63781571 307.67467396 639.5 311.5 C643.95819481 315.91988304 648.35180031 320.32585546 652.40625 325.125 C654.34325871 327.40383378 656.35905625 329.60324657 658.375 331.8125 C662.23022386 336.08310151 665.87582515 340.48773669 669.4921875 344.9609375 C672.3883188 348.47057948 675.37680579 351.89018597 678.375 355.3125 C683.53386687 361.2191371 688.44969471 367.26882714 693.25 373.46875 C695.63518936 376.54818757 698.07608238 379.57897619 700.52880859 382.60473633 C705.72881905 389.03066456 710.67041037 395.57780744 715.41796875 402.34375 C717.1603637 404.82621236 718.93432778 407.28066808 720.73828125 409.71875 C745.48048289 443.2640184 767.66855987 478.86587817 787.60839844 515.44775391 C788.60592829 517.27725866 789.60698991 519.10483943 790.61035156 520.93115234 C832.92231864 598.06802782 863.7325016 680.55816158 906.3125 899.4375 C906.42567566 900.56612961 906.42567566 900.56612961 906.5411377 901.71755981 C907.1083218 907.47266524 907.5730149 913.2329094 908 919 C908.08613556 920.14554352 908.17227112 921.29108704 908.26101685 922.47134399 C909.98521398 946.1289282 910.36470222 969.7259381 910.31805801 993.44077301 C910.31240997 996.35901444 910.30959445 999.27725004 910.30697632 1002.19549561 C910.27154277 1029.36799739 909.98774631 1056.4044771 907.25323486 1083.46270752 C906.98427066 1086.15760046 906.73086938 1088.85365953 906.47998047 1091.55029297 C903.82341495 1119.88408552 899.97679723 1147.98154748 895 1176 C894.85302673 1176.82810181 894.70605347 1177.65620361 894.55462646 1178.50939941 C887.08997182 1220.26050648 876.76415374 1261.62338225 863.66027832 1301.95983887 C862.99992665 1304.00022664 862.34784747 1306.04308168 861.69824219 1308.08691406 C851.20949603 1341.04125897 838.64460577 1373.16611509 824.47607422 1404.70556641 C822.86145625 1408.30921426 821.2764528 1411.92482877 819.70532227 1415.54760742 C817.03666319 1421.60561429 814.2618454 1427.58892532 811.28125 1433.5 C810.93635529 1434.18650635 810.59146057 1434.8730127 810.2361145 1435.58032227 C809.15940923 1437.72122893 808.08000764 1439.86075764 807 1442 C806.66425964 1442.66628418 806.32851929 1443.33256836 805.98260498 1444.01904297 C797.02346083 1461.78920998 787.7937657 1479.27781502 777.56835938 1496.35986328 C775.58422279 1499.69990889 773.65586886 1503.0701333 771.72973633 1506.44384766 C757.01514215 1532.1711846 740.39371383 1557.00808063 723 1581 C722.45956055 1581.74620605 721.91912109 1582.49241211 721.36230469 1583.26123047 C710.02965277 1598.86542042 698.29600327 1614.14232939 686 1629 C684.56231259 1630.77068118 683.12481798 1632.54151892 681.6875 1634.3125 C674.10061655 1643.58094401 666.29650397 1652.66850861 658.23046875 1661.5234375 C656.35684751 1663.60378052 654.51298026 1665.7040625 652.67578125 1667.81640625 C649.19217228 1671.80404452 645.62317799 1675.70158452 642 1679.5625 C641.3620752 1680.2428833 640.72415039 1680.9232666 640.06689453 1681.62426758 C633.75095545 1688.32404399 627.25777578 1694.84037434 620.70654297 1701.30932617 C616.7763229 1705.20299913 612.87771984 1709.12806669 608.98046875 1713.0546875 C607.54165542 1714.50088274 606.10235519 1715.94659145 604.6628418 1717.39208984 C603.68374233 1718.376212 602.70554305 1719.36123062 601.72827148 1720.34716797 C596.55849307 1725.56137076 591.36285497 1730.68959548 585.78100586 1735.46630859 C583.00733785 1737.85481887 580.35673407 1740.37127697 577.6875 1742.875 C572.91589105 1747.31465293 568.0183201 1751.51659141 562.93359375 1755.59765625 C559.45096441 1758.4496097 556.0722482 1761.40827123 552.6875 1764.375 C546.77470633 1769.53952821 540.7178596 1774.45972409 534.51171875 1779.265625 C531.52446683 1781.57951755 528.58345821 1783.94573109 525.64892578 1786.32592773 C516.33127397 1793.86849379 506.71161179 1800.97493019 497 1808 C496.33371582 1808.4837207 495.66743164 1808.96744141 494.98095703 1809.46582031 C469.65167962 1827.7990234 443.30812017 1845.07213674 416.23388672 1860.70947266 C414.71063244 1861.58946415 413.18888179 1862.47206231 411.66845703 1863.35693359 C390.58728747 1875.62195378 369.18727952 1887.23327557 347.1015625 1897.58984375 C343.36363171 1899.34298982 339.66848944 1901.15913546 335.99462891 1903.04223633 C255.65412365 1944.1986482 164.38260645 1969.84723164 -24.37469482 1995.83601379 C-26.45274387 1995.96581637 -28.53013365 1996.10616903 -30.60723877 1996.25028992 C-41.78309333 1996.99895551 -52.91884848 1997.16340961 -64.1171875 1997.16796875 C-66.02686587 1997.17119887 -67.93654401 1997.1745641 -69.84622192 1997.17805481 C-73.83482432 1997.18399979 -77.82340522 1997.18589992 -81.81201172 1997.18530273 C-85.82182387 1997.18522212 -89.83152021 1997.19206881 -93.84130859 1997.20581055 C-118.96880203 1997.2905315 -143.93726148 1996.88032715 -169 1995 C-170.48285492 1994.88998154 -170.48285492 1994.88998154 -171.9956665 1994.77774048 C-177.38079981 1994.3662096 -182.7533709 1993.87211628 -188.125 1993.3125 C-188.91964661 1993.23140991 -189.71429321 1993.15031982 -190.53302002 1993.06677246 C-241.73439202 1987.79350432 -292.11336523 1978.57944166 -342 1966 C-343.07749512 1965.73053558 -343.07749512 1965.73053558 -344.17675781 1965.45562744 C-392.24389677 1953.43178065 -439.66237996 1936.9682678 -485 1917 C-486.71098877 1916.25049072 -486.71098877 1916.25049072 -488.45654297 1915.48583984 C-523.5905519 1900.05916096 -558.15329712 1883.36256187 -591.13427734 1863.70263672 C-593.95244226 1862.02825589 -596.78075652 1860.3726081 -599.61328125 1858.72265625 C-609.09764183 1853.18655898 -618.4792532 1847.51268773 -627.75 1841.625 C-629.07088623 1840.78678711 -629.07088623 1840.78678711 -630.41845703 1839.93164062 C-635.63229325 1836.59399171 -640.73254849 1833.12417412 -645.78955078 1829.55371094 C-648.34804036 1827.75536461 -650.94648103 1826.02589258 -653.5625 1824.3125 C-667.05618216 1815.33387943 -680.05758314 1805.76577042 -692.91015625 1795.89453125 C-696.74785368 1792.94838372 -700.61450771 1790.04593476 -704.50292969 1787.16723633 C-711.20494549 1782.20135396 -717.65788034 1777.03419319 -723.9765625 1771.58984375 C-726.84284949 1769.13461342 -729.75225284 1766.74704147 -732.6875 1764.375 C-737.13903808 1760.75165505 -741.42382455 1756.98036128 -745.66796875 1753.1171875 C-747.75823889 1751.21948831 -749.86986115 1749.35266585 -752 1747.5 C-763.3464003 1737.60304005 -774.61534801 1727.53051617 -785.17578125 1716.79296875 C-787.05537183 1714.94557672 -789.00277139 1713.21908459 -791 1711.5 C-796.42403847 1706.81898049 -801.48126062 1701.8334305 -806.125 1696.375 C-810.24827183 1691.54681285 -814.81837239 1687.15974595 -819.37744141 1682.74755859 C-819.97347168 1682.16312988 -820.56950195 1681.57870117 -821.18359375 1680.9765625 C-821.72556396 1680.45143066 -822.26753418 1679.92629883 -822.82592773 1679.38525391 C-824 1678 -824 1678 -824 1676 C-824.66 1676 -825.32 1676 -826 1676 C-827.41015625 1674.6015625 -827.41015625 1674.6015625 -829.0625 1672.625 C-831.77923786 1669.42453655 -834.54335219 1666.28693937 -837.375 1663.1875 C-841.32687937 1658.81364029 -845.05275365 1654.29027878 -848.7578125 1649.70703125 C-850.89483782 1647.12696409 -853.10735745 1644.65285515 -855.375 1642.1875 C-859.35261685 1637.81762681 -863.00876594 1633.26390464 -866.62792969 1628.59887695 C-870.22465939 1623.96606507 -873.90897488 1619.412485 -877.625 1614.875 C-882.92698239 1608.37629326 -888.06069525 1601.78008789 -893 1595 C-893.47904785 1594.34306152 -893.9580957 1593.68612305 -894.45166016 1593.00927734 C-897.77447145 1588.44468045 -901.07703795 1583.865882 -904.36669922 1579.27734375 C-905.41349065 1577.81778165 -906.46185156 1576.35934314 -907.51220703 1574.90234375 C-916.42132082 1562.53502832 -924.75907132 1549.81997355 -933 1537 C-933.53125488 1536.17741699 -934.06250977 1535.35483398 -934.60986328 1534.50732422 C-943.16238934 1521.24829716 -951.15207956 1507.68584791 -959 1494 C-959.82274414 1492.57518311 -959.82274414 1492.57518311 -960.66210938 1491.12158203 C-978.21359026 1460.66860937 -993.97903426 1429.22519315 -1008 1397 C-1008.27954529 1396.35969849 -1008.55909058 1395.71939697 -1008.84710693 1395.05969238 C-1041.63405186 1319.90145091 -1064.78542363 1240.33662368 -1085.8125 1098.6875 C-1085.96168884 1097.26612732 -1085.96168884 1097.26612732 -1086.1138916 1095.81604004 C-1089.32674456 1064.78375594 -1090.33600378 1033.8841527 -1090.26074219 1002.70507812 C-1090.24934871 997.95277531 -1090.25613672 993.20069665 -1090.26762104 988.44840145 C-1090.31519864 965.22567101 -1089.75367236 942.15885093 -1088 919 C-1087.926745 918.01279968 -1087.85348999 917.02559937 -1087.77801514 916.00848389 C-1087.35897543 910.47733506 -1086.86595204 904.95672881 -1086.3125 899.4375 C-1086.23140991 898.61667938 -1086.15031982 897.79585876 -1086.06677246 896.95016479 C-1079.69361292 833.18329633 -1067.07040476 770.45837691 -1049 709 C-1048.70122955 707.98347351 -1048.70122955 707.98347351 -1048.39642334 706.94641113 C-1026.39669955 632.36871698 -994.81236931 559.2936625 -950.87158203 486.09179688 C-949.09591242 483.15844442 -947.34010648 480.21418768 -945.58984375 477.265625 C-932.43210344 455.2154917 -918.09023171 433.77435384 -903 413 C-902.46246094 412.25814453 -901.92492187 411.51628906 -901.37109375 410.75195312 C-885.86240993 389.39660148 -869.53416392 368.6860719 -852.38574219 348.62402344 C-850.94270908 346.93285779 -849.50625183 345.23625381 -848.0703125 343.5390625 C-841.70216073 336.03344424 -835.14742473 328.73826368 -828.43066406 321.54394531 C-826.19914463 319.13573219 -824.01136461 316.68801605 -821.8125 314.25 C-815.09970646 306.91002576 -808.02205743 299.93315572 -800.95361328 292.93774414 C-796.86978678 288.88709044 -792.8143984 284.80833983 -788.76171875 280.7265625 C-787.2534077 279.21086753 -785.7446095 277.69565937 -784.2355957 276.18066406 C-783.2079943 275.1480389 -782.18129286 274.11451732 -781.15551758 273.08007812 C-764.81385546 256.60461849 -764.81385546 256.60461849 -760 255 C-760 254.34 -760 253.68 -760 253 C-758.7421875 251.6953125 -758.7421875 251.6953125 -756.875 250.125 C-755.77671875 249.19107422 -755.77671875 249.19107422 -754.65625 248.23828125 C-753.7796875 247.49964844 -752.903125 246.76101562 -752 246 C-750.37833058 244.61214545 -748.75973766 243.22074994 -747.14111328 241.8293457 C-745.33336544 240.27674171 -743.52236506 238.72799599 -741.7109375 237.1796875 C-739.2917862 235.11029302 -736.88061267 233.03222693 -734.4765625 230.9453125 C-727.11976817 224.57087023 -719.61658912 218.44355205 -711.91748047 212.48779297 C-709.86710005 210.89688155 -707.82563094 209.29499999 -705.78515625 207.69140625 C-689.91341386 195.2402678 -673.73626733 183.26421818 -657 172 C-656.01467285 171.33452148 -655.0293457 170.66904297 -654.01416016 169.98339844 C-639.20609037 159.99363486 -624.28268669 150.25398393 -609 141 C-608.15888672 140.48743652 -607.31777344 139.97487305 -606.45117188 139.44677734 C-595.63930435 132.85945531 -584.74014983 126.47109194 -573.61669922 120.42382812 C-571.75950286 119.41326933 -569.90458825 118.39851211 -568.05126953 117.38085938 C-519.06328363 90.507967 -467.88172277 68.05728875 -415 50 C-413.91685516 49.63004913 -413.91685516 49.63004913 -412.81182861 49.25262451 C-352.0889073 28.57168847 -289.51465452 13.95740191 -226 5 C-224.88803253 4.84144531 -224.88803253 4.84144531 -223.75360107 4.6796875 C-150.50681122 -5.73019809 -73.66037518 -7.26034344 0 0 Z " fill="#FE751F" transform="translate(1090,3)"/>
<path d="M0 0 C1.49789426 0.00252612 2.99578855 0.00503857 4.49368286 0.00753784 C26.84959744 0.0573574 49.05675932 0.37757714 71.25 3.3125 C72.09921021 3.42420532 72.94842041 3.53591064 73.82336426 3.65100098 C144.27126388 13.03033715 211.06008941 32.76368078 275.25 63.3125 C276.20648437 63.76737793 277.16296875 64.22225586 278.1484375 64.69091797 C292.01193034 71.33384162 305.3206641 78.77211402 318.50634766 86.66943359 C320.96098956 88.13942292 323.42273762 89.59653129 325.88671875 91.05078125 C344.76435995 102.28949388 362.88595003 114.86159651 380.25 128.3125 C380.98831055 128.88097656 381.72662109 129.44945312 382.48730469 130.03515625 C394.76044431 139.48623923 406.88887048 148.97472061 418.23046875 159.5390625 C420.48774899 161.63287134 422.79016012 163.66702504 425.11328125 165.6875 C437.58250847 176.55916741 449.22361078 188.16964239 460.42480469 200.33447266 C462.14095574 202.19432496 463.86860164 204.04253801 465.6015625 205.88671875 C470.875872 211.51521786 475.96467523 217.24548245 480.79296875 223.265625 C482.64945546 225.56778658 484.52495624 227.84432341 486.42578125 230.109375 C495.15161875 240.53204015 503.30949821 251.28246373 511.25 262.3125 C511.76272461 263.01842285 512.27544922 263.7243457 512.80371094 264.45166016 C532.9011353 292.13955611 549.91552532 321.76462453 565.25 352.3125 C565.73033691 353.26382812 566.21067383 354.21515625 566.70556641 355.1953125 C597.58849283 416.72014924 616.88494861 484.6188752 625.5 552.8125 C625.65106201 554.00149902 625.80212402 555.19049805 625.95776367 556.41552734 C626.43204707 560.37725163 626.85108349 564.34267504 627.25 568.3125 C627.3813031 569.56540833 627.3813031 569.56540833 627.51525879 570.84362793 C629.35449127 588.83233669 629.56293754 606.73385635 629.51074219 624.79443359 C629.49938775 628.75480042 629.50611855 632.71489731 629.51760483 636.67525482 C629.58450536 663.74323469 628.31402645 690.48080703 624.5 717.3125 C624.36961334 718.24707031 624.23922668 719.18164062 624.10488892 720.14453125 C621.83199954 736.36705835 619.01816555 752.36249272 615.25 768.3125 C614.92329545 769.71174094 614.59663722 771.11099269 614.27001953 772.51025391 C604.49453713 814.15897063 591.2427358 854.45477029 573.25 893.3125 C572.55487305 894.82021973 572.55487305 894.82021973 571.84570312 896.35839844 C552.69939056 937.65822903 529.54314212 975.91648787 502.25 1012.3125 C501.69812012 1013.05274414 501.14624023 1013.79298828 500.57763672 1014.55566406 C492.88420102 1024.86080069 484.81341186 1034.71894653 476.25 1044.3125 C475.0125 1045.70082031 475.0125 1045.70082031 473.75 1047.1171875 C472.28962067 1048.74490196 470.82501389 1050.36883715 469.35546875 1051.98828125 C467.91180065 1053.58194084 466.47733848 1055.18397436 465.05078125 1056.79296875 C460.40032846 1062.02777163 455.57910584 1067.01747896 450.59375 1071.93359375 C448.50239065 1074.05632349 446.55098204 1076.22821663 444.625 1078.5 C441.79427402 1081.80581286 438.73420257 1084.58893961 435.41796875 1087.3984375 C432.91897667 1089.60475484 430.59089953 1091.93933693 428.25 1094.3125 C424.07135723 1098.52913043 419.76874094 1102.46774076 415.25 1106.3125 C414.21024803 1107.21535243 413.17124927 1108.11907267 412.1328125 1109.0234375 C404.57565528 1115.58405831 396.86080789 1121.89021025 388.93945312 1128.00537109 C387.31336787 1129.26347231 385.69493345 1130.5307913 384.078125 1131.80078125 C320.79843004 1181.14949859 247.79372698 1217.18461957 170.79101562 1239.29150391 C167.75483634 1240.16693839 164.72819688 1241.06765387 161.703125 1241.98046875 C149.64553781 1245.53433282 137.3778308 1248.02919575 125.0625 1250.5 C124.22290741 1250.66880676 123.38331482 1250.83761353 122.51828003 1251.01153564 C105.28193419 1254.45673879 88.00937893 1257.27954085 70.53442383 1259.19287109 C68.31432757 1259.43729879 66.09570415 1259.69289918 63.87695312 1259.94921875 C42.55472168 1262.35841458 21.22519129 1262.52722985 -0.20776367 1262.55273438 C-3.33776692 1262.55709 -6.46749001 1262.57089845 -9.59741211 1262.59375 C-31.49934847 1262.75011695 -52.9804115 1261.79228599 -74.75 1259.3125 C-76.16480148 1259.15180023 -76.16480148 1259.15180023 -77.60818481 1258.987854 C-82.56552398 1258.40925854 -87.50119722 1257.7364595 -92.4375 1257 C-93.14837769 1256.89545502 -93.85925537 1256.79091003 -94.5916748 1256.68319702 C-169.69304729 1245.59330588 -243.71257073 1220.85740437 -309.75 1183.3125 C-310.55163574 1182.86197266 -311.35327148 1182.41144531 -312.17919922 1181.94726562 C-355.13840473 1157.79207927 -395.0567119 1128.38619571 -431.13134766 1094.81787109 C-432.9110543 1093.16271707 -434.69580156 1091.51308465 -436.48046875 1089.86328125 C-454.76534194 1072.92339118 -454.76534194 1072.92339118 -462.6484375 1063.6953125 C-464.96863745 1061.06460252 -467.36422268 1058.51617941 -469.77124023 1055.96508789 C-475.25678052 1050.15011176 -480.56414211 1044.28714946 -485.5546875 1038.03515625 C-487.5501617 1035.56034217 -489.60061532 1033.14305906 -491.67675781 1030.73583984 C-540.21711603 974.31066657 -575.78841459 905.44116086 -599.75 835.3125 C-600.17941895 834.07048828 -600.60883789 832.82847656 -601.05126953 831.54882812 C-606.66322042 815.31405747 -611.843226 799.05263704 -615.75 782.3125 C-615.99169922 781.28640625 -616.23339844 780.2603125 -616.48242188 779.203125 C-622.74765698 752.2544774 -627.11319667 724.93868194 -630.0625 697.4375 C-630.14381165 696.67962189 -630.22512329 695.92174377 -630.30889893 695.14089966 C-631.92288186 679.89303019 -632.90992444 664.75182628 -632.91796875 649.4140625 C-632.92119983 647.92597424 -632.92456511 646.43788626 -632.92805481 644.94979858 C-632.93398851 641.84884916 -632.93590093 638.74792734 -632.93530273 635.64697266 C-632.93522188 632.52516841 -632.9421092 629.40351218 -632.95581055 626.28173828 C-633.03310246 608.40455251 -632.78085215 590.72889348 -631.00471497 572.9183197 C-630.65980272 569.38975152 -630.36849262 565.85740915 -630.07894897 562.32392883 C-628.23383363 540.73403619 -624.48731385 519.43835905 -619.75 498.3125 C-619.49347656 497.14847656 -619.23695313 495.98445313 -618.97265625 494.78515625 C-610.46593614 456.3217567 -598.7693454 418.3465892 -582.75 382.3125 C-582.12689941 380.89928467 -582.12689941 380.89928467 -581.49121094 379.45751953 C-569.53581593 352.45984834 -556.28543973 326.42115076 -540.75 301.3125 C-540.13205566 300.31186523 -539.51411133 299.31123047 -538.87744141 298.28027344 C-524.12341228 274.49871887 -507.79391312 251.72109162 -489.75 230.3125 C-488.86058786 229.24877251 -487.97127059 228.1849657 -487.08203125 227.12109375 C-482.16492985 221.25757609 -477.17305375 215.47911602 -472.015625 209.82421875 C-470.75276471 208.4241857 -469.49627087 207.0180748 -468.26542664 205.58981323 C-464.06639919 200.71880873 -459.68228661 196.09802169 -455.12890625 191.55859375 C-454.07351906 190.50177147 -454.07351906 190.50177147 -452.99681091 189.42359924 C-451.51985352 187.94596633 -450.04165258 186.46957543 -448.56225586 184.99438477 C-446.31834915 182.75583519 -444.07983296 180.51199527 -441.84179688 178.26757812 C-440.39615382 176.82259596 -438.95020055 175.37792408 -437.50390625 173.93359375 C-436.8453212 173.27298447 -436.18673615 172.61237518 -435.50819397 171.93174744 C-431.62377458 168.06653521 -427.63064592 164.38164357 -423.47955322 160.80393982 C-421.2602696 158.89019243 -419.10027953 156.91468199 -416.9375 154.9375 C-412.59355199 151.01799882 -408.12565382 147.28870789 -403.57421875 143.61328125 C-401.70496481 142.09047272 -399.85289444 140.54630255 -398.01953125 138.98046875 C-389.98226445 132.11830579 -381.52440971 125.96697555 -372.91162109 119.85253906 C-370.96010023 118.46218514 -369.01870627 117.05935954 -367.08203125 115.6484375 C-312.72061477 76.13470084 -249.12046579 44.08235577 -184.23339844 26.00878906 C-181.49612125 25.24131811 -178.76784156 24.44557834 -176.0390625 23.6484375 C-148.2253873 15.5931108 -120.33224958 9.85547629 -91.72467041 5.60742188 C-89.95026977 5.34241078 -88.17696214 5.07010572 -86.40380859 4.796875 C-74.85917152 3.0263539 -63.31280125 1.96766868 -51.65625 1.25390625 C-50.5909116 1.18847091 -50.5909116 1.18847091 -49.50405121 1.12171364 C-33.00272695 0.13087342 -16.52676963 -0.04533174 0 0 Z " fill="#FEFDF9" transform="translate(1001.75,368.6875)"/>
<path d="M0 0 C1.49789426 0.00252612 2.99578855 0.00503857 4.49368286 0.00753784 C26.84959744 0.0573574 49.05675932 0.37757714 71.25 3.3125 C72.09921021 3.42420532 72.94842041 3.53591064 73.82336426 3.65100098 C144.27126388 13.03033715 211.06008941 32.76368078 275.25 63.3125 C276.20648437 63.76737793 277.16296875 64.22225586 278.1484375 64.69091797 C292.01193034 71.33384162 305.3206641 78.77211402 318.50634766 86.66943359 C320.96098956 88.13942292 323.42273762 89.59653129 325.88671875 91.05078125 C344.76435995 102.28949388 362.88595003 114.86159651 380.25 128.3125 C380.98831055 128.88097656 381.72662109 129.44945312 382.48730469 130.03515625 C394.76044431 139.48623923 406.88887048 148.97472061 418.23046875 159.5390625 C420.48774899 161.63287134 422.79016012 163.66702504 425.11328125 165.6875 C437.58250847 176.55916741 449.22361078 188.16964239 460.42480469 200.33447266 C462.14095574 202.19432496 463.86860164 204.04253801 465.6015625 205.88671875 C470.875872 211.51521786 475.96467523 217.24548245 480.79296875 223.265625 C482.64945546 225.56778658 484.52495624 227.84432341 486.42578125 230.109375 C495.15161875 240.53204015 503.30949821 251.28246373 511.25 262.3125 C511.76272461 263.01842285 512.27544922 263.7243457 512.80371094 264.45166016 C532.9011353 292.13955611 549.91552532 321.76462453 565.25 352.3125 C565.73033691 353.26382812 566.21067383 354.21515625 566.70556641 355.1953125 C597.58849283 416.72014924 616.88494861 484.6188752 625.5 552.8125 C625.65106201 554.00149902 625.80212402 555.19049805 625.95776367 556.41552734 C626.43204707 560.37725163 626.85108349 564.34267504 627.25 568.3125 C627.3813031 569.56540833 627.3813031 569.56540833 627.51525879 570.84362793 C629.35449127 588.83233669 629.56293754 606.73385635 629.51074219 624.79443359 C629.49938775 628.75480042 629.50611855 632.71489731 629.51760483 636.67525482 C629.58450536 663.74323469 628.31402645 690.48080703 624.5 717.3125 C624.36961334 718.24707031 624.23922668 719.18164062 624.10488892 720.14453125 C621.83199954 736.36705835 619.01816555 752.36249272 615.25 768.3125 C614.92329545 769.71174094 614.59663722 771.11099269 614.27001953 772.51025391 C604.49453713 814.15897063 591.2427358 854.45477029 573.25 893.3125 C572.55487305 894.82021973 572.55487305 894.82021973 571.84570312 896.35839844 C552.69939056 937.65822903 529.54314212 975.91648787 502.25 1012.3125 C501.69812012 1013.05274414 501.14624023 1013.79298828 500.57763672 1014.55566406 C492.88420102 1024.86080069 484.81341186 1034.71894653 476.25 1044.3125 C475.0125 1045.70082031 475.0125 1045.70082031 473.75 1047.1171875 C472.28962067 1048.74490196 470.82501389 1050.36883715 469.35546875 1051.98828125 C467.91180065 1053.58194084 466.47733848 1055.18397436 465.05078125 1056.79296875 C460.40032846 1062.02777163 455.57910584 1067.01747896 450.59375 1071.93359375 C448.50239065 1074.05632349 446.55098204 1076.22821663 444.625 1078.5 C441.79427402 1081.80581286 438.73420257 1084.58893961 435.41796875 1087.3984375 C432.91897667 1089.60475484 430.59089953 1091.93933693 428.25 1094.3125 C424.07135723 1098.52913043 419.76874094 1102.46774076 415.25 1106.3125 C414.21024803 1107.21535243 413.17124927 1108.11907267 412.1328125 1109.0234375 C404.57565528 1115.58405831 396.86080789 1121.89021025 388.93945312 1128.00537109 C387.31336787 1129.26347231 385.69493345 1130.5307913 384.078125 1131.80078125 C320.79843004 1181.14949859 247.79372698 1217.18461957 170.79101562 1239.29150391 C167.75483634 1240.16693839 164.72819688 1241.06765387 161.703125 1241.98046875 C149.64553781 1245.53433282 137.3778308 1248.02919575 125.0625 1250.5 C124.22290741 1250.66880676 123.38331482 1250.83761353 122.51828003 1251.01153564 C105.28193419 1254.45673879 88.00937893 1257.27954085 70.53442383 1259.19287109 C68.31432757 1259.43729879 66.09570415 1259.69289918 63.87695312 1259.94921875 C42.55472168 1262.35841458 21.22519129 1262.52722985 -0.20776367 1262.55273438 C-3.33776692 1262.55709 -6.46749001 1262.57089845 -9.59741211 1262.59375 C-31.49934847 1262.75011695 -52.9804115 1261.79228599 -74.75 1259.3125 C-76.16480148 1259.15180023 -76.16480148 1259.15180023 -77.60818481 1258.987854 C-82.56552398 1258.40925854 -87.50119722 1257.7364595 -92.4375 1257 C-93.14837769 1256.89545502 -93.85925537 1256.79091003 -94.5916748 1256.68319702 C-169.69304729 1245.59330588 -243.71257073 1220.85740437 -309.75 1183.3125 C-310.55163574 1182.86197266 -311.35327148 1182.41144531 -312.17919922 1181.94726562 C-355.13840473 1157.79207927 -395.0567119 1128.38619571 -431.13134766 1094.81787109 C-432.9110543 1093.16271707 -434.69580156 1091.51308465 -436.48046875 1089.86328125 C-454.76534194 1072.92339118 -454.76534194 1072.92339118 -462.6484375 1063.6953125 C-464.96863745 1061.06460252 -467.36422268 1058.51617941 -469.77124023 1055.96508789 C-475.25678052 1050.15011176 -480.56414211 1044.28714946 -485.5546875 1038.03515625 C-487.5501617 1035.56034217 -489.60061532 1033.14305906 -491.67675781 1030.73583984 C-540.21711603 974.31066657 -575.78841459 905.44116086 -599.75 835.3125 C-600.17941895 834.07048828 -600.60883789 832.82847656 -601.05126953 831.54882812 C-606.66322042 815.31405747 -611.843226 799.05263704 -615.75 782.3125 C-615.99169922 781.28640625 -616.23339844 780.2603125 -616.48242188 779.203125 C-622.74765698 752.2544774 -627.11319667 724.93868194 -630.0625 697.4375 C-630.14381165 696.67962189 -630.22512329 695.92174377 -630.30889893 695.14089966 C-631.92288186 679.89303019 -632.90992444 664.75182628 -632.91796875 649.4140625 C-632.92119983 647.92597424 -632.92456511 646.43788626 -632.92805481 644.94979858 C-632.93398851 641.84884916 -632.93590093 638.74792734 -632.93530273 635.64697266 C-632.93522188 632.52516841 -632.9421092 629.40351218 -632.95581055 626.28173828 C-633.03310246 608.40455251 -632.78085215 590.72889348 -631.00471497 572.9183197 C-630.65980272 569.38975152 -630.36849262 565.85740915 -630.07894897 562.32392883 C-628.23383363 540.73403619 -624.48731385 519.43835905 -619.75 498.3125 C-619.49347656 497.14847656 -619.23695313 495.98445313 -618.97265625 494.78515625 C-610.46593614 456.3217567 -598.7693454 418.3465892 -582.75 382.3125 C-582.12689941 380.89928467 -582.12689941 380.89928467 -581.49121094 379.45751953 C-569.53581593 352.45984834 -556.28543973 326.42115076 -540.75 301.3125 C-540.13205566 300.31186523 -539.51411133 299.31123047 -538.87744141 298.28027344 C-524.12341228 274.49871887 -507.79391312 251.72109162 -489.75 230.3125 C-488.86058786 229.24877251 -487.97127059 228.1849657 -487.08203125 227.12109375 C-482.16492985 221.25757609 -477.17305375 215.47911602 -472.015625 209.82421875 C-470.75276471 208.4241857 -469.49627087 207.0180748 -468.26542664 205.58981323 C-464.06639919 200.71880873 -459.68228661 196.09802169 -455.12890625 191.55859375 C-454.07351906 190.50177147 -454.07351906 190.50177147 -452.99681091 189.42359924 C-451.51985352 187.94596633 -450.04165258 186.46957543 -448.56225586 184.99438477 C-446.31834915 182.75583519 -444.07983296 180.51199527 -441.84179688 178.26757812 C-440.39615382 176.82259596 -438.95020055 175.37792408 -437.50390625 173.93359375 C-436.8453212 173.27298447 -436.18673615 172.61237518 -435.50819397 171.93174744 C-431.62377458 168.06653521 -427.63064592 164.38164357 -423.47955322 160.80393982 C-421.2602696 158.89019243 -419.10027953 156.91468199 -416.9375 154.9375 C-412.59355199 151.01799882 -408.12565382 147.28870789 -403.57421875 143.61328125 C-401.70496481 142.09047272 -399.85289444 140.54630255 -398.01953125 138.98046875 C-389.98226445 132.11830579 -381.52440971 125.96697555 -372.91162109 119.85253906 C-370.96010023 118.46218514 -369.01870627 117.05935954 -367.08203125 115.6484375 C-312.72061477 76.13470084 -249.12046579 44.08235577 -184.23339844 26.00878906 C-181.49612125 25.24131811 -178.76784156 24.44557834 -176.0390625 23.6484375 C-148.2253873 15.5931108 -120.33224958 9.85547629 -91.72467041 5.60742188 C-89.95026977 5.34241078 -88.17696214 5.07010572 -86.40380859 4.796875 C-74.85917152 3.0263539 -63.31280125 1.96766868 -51.65625 1.25390625 C-50.5909116 1.18847091 -50.5909116 1.18847091 -49.50405121 1.12171364 C-33.00272695 0.13087342 -16.52676963 -0.04533174 0 0 Z M-169.75 114.3125 C-170.89017578 114.68455566 -172.03035156 115.05661133 -173.20507812 115.43994141 C-191.50423555 121.41776567 -209.2152445 128.37144269 -226.75 136.3125 C-227.76819824 136.77269531 -228.78639648 137.23289062 -229.83544922 137.70703125 C-243.70186105 144.02878511 -257.0098926 151.15379087 -270.17675781 158.81933594 C-272.45008112 160.13846737 -274.73324808 161.43703652 -277.0234375 162.7265625 C-286.11799384 167.89495665 -294.8547504 173.58644387 -303.5625 179.375 C-304.12900269 179.75055023 -304.69550537 180.12610046 -305.2791748 180.51303101 C-313.31716669 185.85296283 -321.09242685 191.44280279 -328.75 197.3125 C-329.42377686 197.8278833 -330.09755371 198.3432666 -330.79174805 198.87426758 C-342.06850537 207.55906802 -352.94629335 216.6817425 -363.4765625 226.2578125 C-365.60545309 228.18186138 -367.76419142 230.06395812 -369.9375 231.9375 C-373.10050338 234.68848891 -376.05125576 237.58945689 -378.984375 240.58203125 C-380.75614508 242.31852272 -382.60030373 243.90533626 -384.5 245.5 C-389.49578004 249.81497316 -393.81598408 254.73499111 -398.22314453 259.6328125 C-400.3543663 261.97736092 -402.52766446 264.28128507 -404.69848633 266.58911133 C-409.80253781 272.02614884 -414.72927944 277.53659929 -419.390625 283.36328125 C-421.15314295 285.56642869 -422.93251758 287.74744631 -424.734375 289.91796875 C-443.56662845 312.67217905 -460.14784067 337.36570677 -474.53662109 363.15478516 C-475.70667428 365.23545518 -476.90525686 367.2966665 -478.11328125 369.35546875 C-501.44961032 409.57513293 -518.04414089 454.29286346 -529.25 499.3125 C-529.55274338 500.52744644 -529.55274338 500.52744644 -529.86160278 501.76693726 C-534.13387187 519.05011751 -537.75964006 536.37589902 -539.875 554.0625 C-540.04147194 555.41519462 -540.20855392 556.76781429 -540.3762207 558.12036133 C-540.69789343 560.72066212 -541.01582898 563.32132194 -541.33154297 565.92236328 C-541.67060298 568.66926371 -542.02824474 571.41117539 -542.41015625 574.15234375 C-550.89584366 636.06643337 -545.05509801 704.11990475 -528.75 764.3125 C-528.3000769 766.03158569 -528.3000769 766.03158569 -527.84106445 767.78540039 C-517.90001891 805.65359732 -504.36823988 841.68643298 -486.63153076 876.57476807 C-485.81960161 878.1752967 -485.01515875 879.7796172 -484.21142578 881.38427734 C-474.57906881 900.60516187 -463.80485101 919.38113739 -450.96240234 936.64501953 C-449.14840898 939.13989965 -447.43127238 941.69791489 -445.70458984 944.25366211 C-440.51688545 951.92604218 -435.04353172 959.28346022 -429.22412109 966.48681641 C-427.64901416 968.43756991 -426.0842773 970.3963974 -424.51953125 972.35546875 C-418.92888484 979.32571063 -413.25426876 986.14537031 -407.1640625 992.6875 C-405.89853985 994.0636023 -404.63767865 995.44531142 -403.43041992 996.87280273 C-397.61494559 1003.7291647 -391.20644133 1010.00644956 -384.84399414 1016.34887695 C-382.8173702 1018.37014268 -380.79614453 1020.39669574 -378.77539062 1022.42382812 C-372.60502273 1028.59771318 -366.44889338 1034.7063826 -359.75 1040.3125 C-358.61946732 1041.29631121 -357.49054147 1042.28197212 -356.36328125 1043.26953125 C-348.70349829 1049.91496318 -340.87068268 1056.23852815 -332.75 1062.3125 C-332.06341309 1062.83038086 -331.37682617 1063.34826172 -330.66943359 1063.88183594 C-305.36671412 1082.94651967 -278.75522345 1099.5246252 -250.75 1114.3125 C-249.45618408 1114.99844238 -249.45618408 1114.99844238 -248.13623047 1115.69824219 C-175.1044406 1154.13020132 -89.44633874 1175.00964208 8.25 1174.3125 C9.07322754 1174.28951843 9.89645508 1174.26653687 10.74462891 1174.24285889 C34.12984045 1173.5615809 57.13874368 1172.08355983 80.25 1168.3125 C81.9510791 1168.04397217 81.9510791 1168.04397217 83.68652344 1167.77001953 C135.32492111 1159.53110069 185.16714337 1144.10153891 232.25 1121.3125 C233.02085937 1120.9402832 233.79171875 1120.56806641 234.5859375 1120.18457031 C238.48395774 1118.29171197 242.35364331 1116.34960401 246.20507812 1114.36376953 C247.66205301 1113.61475642 249.12202528 1112.8715617 250.58398438 1112.13232422 C270.6994335 1101.96039683 289.89474716 1090.39497018 308.25 1077.3125 C309.32193604 1076.55718994 309.32193604 1076.55718994 310.41552734 1075.78662109 C320.77031618 1068.48911004 330.75004657 1060.85141335 340.49707031 1052.76123047 C343.00011324 1050.69255961 345.53420376 1048.66267785 348.0625 1046.625 C352.66773356 1042.85645302 357.07873534 1038.90461696 361.44921875 1034.8671875 C362.92942978 1033.51703686 364.41480195 1032.17163283 365.93774414 1030.86987305 C371.81147076 1025.8487964 377.27370409 1020.4410547 382.72290039 1014.9699707 C384.30959946 1013.37791034 385.90157742 1011.7912701 387.49414062 1010.20507812 C392.95703723 1004.7457503 398.23917929 999.19356185 403.25 993.3125 C404.70445517 991.70481627 406.16220895 990.10010285 407.625 988.5 C412.35243697 983.24817506 416.84810258 977.83845623 421.25 972.3125 C421.76191895 971.673125 422.27383789 971.03375 422.80126953 970.375 C431.29399116 959.73614802 439.22395875 948.82077819 446.78320312 937.50097656 C448.11812136 935.50926434 449.46892649 933.52987223 450.828125 931.5546875 C492.66092435 870.42860109 520.87742441 798.25325189 533.25 725.3125 C533.36408203 724.64367798 533.47816406 723.97485596 533.59570312 723.2857666 C544.68053856 657.91576782 544.39164354 591.37106298 531.25 526.3125 C531.1189386 525.65735413 530.9878772 525.00220825 530.85284424 524.32720947 C522.52883404 482.86137821 509.42278878 442.5807154 491.60351562 404.22949219 C490.36918773 401.56936417 489.15771729 398.90024749 487.953125 396.2265625 C482.57376861 384.42118761 476.28963652 373.18094854 469.78417969 361.96337891 C468.42909064 359.62194719 467.09022921 357.27234145 465.7578125 354.91796875 C452.37375537 331.46432244 436.70792282 308.92211862 419.25 288.3125 C418.35765282 287.24644525 417.46574952 286.18001885 416.57421875 285.11328125 C411.67064212 279.26326573 406.6945506 273.49358681 401.55249023 267.85058594 C400.10736802 266.25759574 398.66965419 264.65781967 397.24291992 263.04833984 C391.88854839 257.01671812 386.3265222 251.23306987 380.61108398 245.54321289 C379.18160283 244.11912508 377.75759489 242.68971956 376.33398438 241.25976562 C371.67235401 236.60462326 366.966789 232.07326284 361.96411133 227.78588867 C359.62469918 225.77501383 357.38096173 223.66612991 355.125 221.5625 C349.3920259 216.34069643 343.37016735 211.57530607 337.22900391 206.84570312 C335.11444367 205.2074798 333.01537621 203.55074411 330.91796875 201.890625 C321.28422591 194.28652144 311.47672542 187.09669023 301.25 180.3125 C300.60305176 179.87905273 299.95610352 179.44560547 299.28955078 178.99902344 C248.54409217 145.06825651 193.06074661 121.14649281 134.25 105.3125 C133.3101123 105.05919922 132.37022461 104.80589844 131.40185547 104.54492188 C105.06302594 97.58206805 77.94784915 93.58556617 50.89160156 90.703125 C47.74490454 90.36558711 44.6034276 89.99902645 41.4609375 89.625 C-28.50514336 81.94502579 -103.25304101 92.0820551 -169.75 114.3125 Z " fill="#41B8D4" transform="translate(1001.75,368.6875)"/>
<path d="M0 0 C6.53857998 3.14513974 12.93703035 6.49165002 19.28540039 10.00146484 C69.98229037 37.98757067 123.54951696 58.9365231 179.625 73.375 C180.75736084 73.66664032 180.75736084 73.66664032 181.91259766 73.96417236 C201.94149086 79.10438197 222.06717892 83.70072247 242.54716492 86.6443634 C244.9389362 86.99114636 247.32877263 87.34918562 249.71850586 87.7097168 C262.32468503 89.5890679 274.93011489 91.00477715 287.625 92.125 C289.0661467 92.25340271 289.0661467 92.25340271 290.53640747 92.38439941 C306.02731028 93.75453602 321.4453191 94.79228774 337 95 C338.54933344 95.03056092 340.09864913 95.06203083 341.64794922 95.09423828 C364.63150629 95.54984963 387.38981274 94.90446267 410.3125 93.125 C411.9955423 92.9944371 411.9955423 92.9944371 413.71258545 92.86123657 C429.98955238 91.57501597 446.13847709 90.08067605 462.171875 86.90625 C465.96437044 86.17603839 469.76710384 85.53242345 473.578125 84.90625 C488.67286648 82.41643774 503.49112455 79.40987769 518.32275391 75.66259766 C520.68212603 75.07867134 523.04381481 74.5315624 525.41796875 74.01171875 C589.46201709 59.97540456 650.85162404 31.43942753 708 0 C707.33888191 6.87436224 706.20336415 13.54574644 704.83642578 20.31234741 C704.50543475 21.97454581 704.50543475 21.97454581 704.16775703 23.67032397 C703.43059222 27.36738111 702.68795414 31.06331678 701.9453125 34.75927734 C701.41402384 37.41565221 700.88388964 40.07225716 700.35369873 42.72885132 C699.06462179 49.18429186 697.7714552 55.63890656 696.4768796 62.09324639 C694.96937623 69.60995229 693.46591075 77.12746408 691.96259618 84.64500864 C689.28096282 98.05417545 686.59562006 111.4625967 683.90820312 124.87060547 C681.29993942 137.88371903 678.69438208 150.89737064 676.09179688 163.91162109 C675.93132724 164.71404918 675.77085761 165.51647726 675.60552526 166.34322135 C675.36523788 167.54477931 675.36523788 167.54477931 675.12009621 168.77061117 C672.15640317 183.59045515 669.19018182 198.4097921 666.22277844 213.22889357 C665.17318745 218.47081249 664.12434893 223.71288164 663.07574463 228.95499802 C661.7990115 235.33730092 660.52082773 241.71931138 659.24081945 248.10095827 C658.5875957 251.35783063 657.93518625 254.61486227 657.28401947 257.87214661 C656.57898235 261.39830848 655.87159473 264.92399059 655.16357422 268.44955444 C654.95705797 269.48523288 654.75054173 270.52091132 654.53776741 271.58797395 C654.25355084 272.99938344 654.25355084 272.99938344 653.96359253 274.43930626 C653.80047514 275.25348436 653.63735775 276.06766246 653.46929741 276.90651262 C653 279 653 279 652 282 C455.32 282 258.64 282 56 282 C54.02 271.77 52.04 261.54 50 251 C47.75492737 240.46030896 47.75492737 240.46030896 45.48483276 229.92599487 C42.92256172 218.0518774 40.56945235 206.13473196 38.19140625 194.22265625 C37.65652996 191.54872528 37.1211922 188.87488673 36.58592224 186.20103455 C35.47281596 180.63909894 34.3612925 175.07684883 33.25073242 169.5144043 C32.12888677 163.8955429 31.00519607 158.27705459 29.87963867 152.65893555 C18.45910128 95.65231357 18.45910128 95.65231357 14.12367249 72.22926331 C12.51645713 63.5761267 10.75626679 54.97261139 8.875 46.375 C5.51449012 30.99412346 2.56612034 15.53381026 0 0 Z " fill="#FFFDF9" transform="translate(647,1611)"/>
<path d="M0 0 C196.68 0 393.36 0 596 0 C622.61636539 131.87199217 622.61636539 131.87199217 634.29099274 190.21311951 C635.72278271 197.36680849 637.15751838 204.5199052 638.59256727 211.67294103 C640.0379301 218.8781955 641.48109609 226.08388778 642.92257136 233.28992099 C643.76540259 237.50304323 644.6091155 241.71598366 645.45524025 245.92844582 C646.23205317 249.79608779 647.00613726 253.66426581 647.77809906 257.53287888 C648.05888486 258.93757581 648.3406469 260.34207804 648.62348747 261.74636269 C649.97970584 268.48263242 651.28345126 275.16316742 652 282 C645.39242934 278.82167487 638.92721264 275.43519924 632.5078125 271.89550781 C594.20414609 250.77694952 554.08181254 233.97982714 512.5 220.5 C511.74961456 220.25628662 510.99922913 220.01257324 510.22610474 219.76147461 C480.75652008 210.23277131 450.71569003 202.59760614 420.16015625 197.53808594 C417.19232756 197.03274799 414.23696624 196.48556987 411.28125 195.9140625 C392.81864844 192.34838071 374.18408344 190.0098497 355.390625 189.2109375 C352 189 352 189 349.33007812 188.52124023 C345.32619436 187.89453262 341.37302656 187.64411169 337.328125 187.44921875 C336.46519836 187.40737961 335.60227173 187.36554047 334.7131958 187.32243347 C322.73100515 186.79649058 310.74157361 186.80253554 298.75 186.8125 C296.89949036 186.81290787 296.89949036 186.81290787 295.01159668 186.81332397 C275.9216122 186.83263831 257.0166891 187.25130748 238 189 C236.88157715 189.09651855 235.7631543 189.19303711 234.61083984 189.29248047 C201.66505268 192.19064375 169.16559767 197.82578962 137.0222168 205.51757812 C135.07781635 205.98143606 133.13171206 206.43813409 131.18554688 206.89453125 C113.19315377 211.12462689 95.56820938 216.26624402 78 222 C76.235354 222.56992676 76.235354 222.56992676 74.43505859 223.15136719 C29.51294711 237.75244429 -14.33999351 258.05064011 -55 282 C-57.61843639 271.52625442 -52.26209486 260.5564427 -50 250 C-33.5 167.5 -17 85 0 0 Z " fill="#FFFDF9" transform="translate(703,107)"/>
<path d="M0 0 C3.82931614 0.01170789 7.6583614 0.00459047 11.48766899 -0.00714493 C14.48330783 -0.01434065 17.47888092 -0.01209155 20.47452164 -0.00688934 C21.88991454 -0.00556237 23.30531353 -0.00716693 24.72069931 -0.01184845 C26.66829059 -0.01690884 28.6159033 -0.00783281 30.56347656 0.00195312 C31.66529266 0.00354431 32.76710876 0.0051355 33.90231323 0.0067749 C36.62255859 0.26074219 36.62255859 0.26074219 39.62255859 2.26074219 C38.88392578 2.39609375 38.14529297 2.53144531 37.38427734 2.67089844 C26.40652126 5.00035875 16.59721406 10.26343664 9.62255859 19.26074219 C2.46704253 30.45779973 -0.1536631 41.07015642 2.15771484 54.33105469 C5.18623132 66.21343082 11.20162948 76.33335369 21.68505859 83.19824219 C25.50238085 85.36420773 29.47249161 86.85268375 33.62255859 88.26074219 C33.62255859 88.59074219 33.62255859 88.92074219 33.62255859 89.26074219 C33.01932266 89.25630096 32.41608673 89.25185974 31.79457092 89.24728394 C-36.37755551 88.7689671 -102.27621307 93.49690077 -167.37744141 115.26074219 C-168.51761719 115.63279785 -169.65779297 116.00485352 -170.83251953 116.38818359 C-189.13167696 122.36600786 -206.84268591 129.31968488 -224.37744141 137.26074219 C-225.39563965 137.7209375 -226.41383789 138.18113281 -227.46289062 138.65527344 C-241.32930245 144.97702729 -254.63733401 152.10203305 -267.80419922 159.76757812 C-270.07752253 161.08670956 -272.36068949 162.38527871 -274.65087891 163.67480469 C-283.74543525 168.84319884 -292.48219181 174.53468606 -301.18994141 180.32324219 C-301.75644409 180.69879242 -302.32294678 181.07434265 -302.90661621 181.46127319 C-310.9446081 186.80120502 -318.71986825 192.39104497 -326.37744141 198.26074219 C-327.38810669 199.03381714 -327.38810669 199.03381714 -328.41918945 199.82250977 C-339.69594678 208.50731021 -350.57373476 217.62998469 -361.10400391 227.20605469 C-363.23289449 229.13010357 -365.39163283 231.01220031 -367.56494141 232.88574219 C-370.72515199 235.6343021 -373.67360623 238.53239453 -376.60400391 241.52246094 C-378.41909744 243.30157244 -380.31037031 244.93437982 -382.25244141 246.57324219 C-386.27250901 250.03345512 -389.72563583 253.88037773 -393.22509766 257.85839844 C-395.04769674 259.89269688 -396.91164766 261.80508747 -398.87744141 263.69824219 C-402.59964954 267.35183819 -405.79594448 271.38369018 -409.06103516 275.44433594 C-411.23729561 278.0903457 -413.493176 280.61742521 -415.81494141 283.13574219 C-420.51065547 288.30912372 -424.77070054 293.77030508 -428.95263672 299.36035156 C-429.93437999 300.66979118 -430.92100751 301.97557832 -431.91162109 303.27832031 C-446.36421705 322.28615069 -459.52842024 342.24841136 -471.1640625 363.10302734 C-472.33411568 365.18369737 -473.53269827 367.24490869 -474.74072266 369.30371094 C-498.07705172 409.52337512 -514.6715823 454.24110564 -525.87744141 499.26074219 C-526.07927032 500.07070648 -526.28109924 500.88067078 -526.48904419 501.71517944 C-530.76131327 518.9983597 -534.38708146 536.32414121 -536.50244141 554.01074219 C-536.66891334 555.36343681 -536.83599533 556.71605648 -537.00366211 558.06860352 C-537.32533484 560.66890431 -537.64327039 563.26956413 -537.95898438 565.87060547 C-538.29804439 568.6175059 -538.65568614 571.35941758 -539.03759766 574.10058594 C-547.52328507 636.01467556 -541.68253942 704.06814694 -525.37744141 764.26074219 C-525.07749268 765.40679932 -524.77754395 766.55285645 -524.46850586 767.73364258 C-514.530114 805.59173087 -501.00918629 841.63079065 -483.26867676 876.50683594 C-482.43866979 878.14024782 -481.61436915 879.77655588 -480.79052734 881.41308594 C-475.32201991 892.25448468 -469.45801504 902.76080775 -462.99560547 913.04516602 C-462.50801758 913.83173584 -462.02042969 914.61830566 -461.51806641 915.42871094 C-461.08010742 916.12246826 -460.64214844 916.81622559 -460.19091797 917.53100586 C-459.9224707 918.10181885 -459.65402344 918.67263184 -459.37744141 919.26074219 C-459.70744141 919.92074219 -460.03744141 920.58074219 -460.37744141 921.26074219 C-461.30556641 920.37386719 -462.23369141 919.48699219 -463.18994141 918.57324219 C-473.75676626 909.49136828 -485.96232945 908.52411828 -499.25732422 909.08154297 C-503.81357005 909.46665173 -507.46486311 910.98664433 -511.37744141 913.26074219 C-512.15345703 913.69644531 -512.92947266 914.13214844 -513.72900391 914.58105469 C-524.05319517 920.89987409 -529.68877995 929.70688381 -533.68994141 940.94824219 C-535.66963538 950.22452251 -534.92162031 960.19710483 -532.37744141 969.26074219 C-537.71417237 964.53533954 -540.84016209 957.37355763 -544.37744141 951.26074219 C-545.13444336 949.9562915 -545.13444336 949.9562915 -545.90673828 948.62548828 C-566.85572875 912.3456457 -583.83185343 874.90477779 -597.37744141 835.26074219 C-597.80686035 834.01873047 -598.2362793 832.77671875 -598.67871094 831.49707031 C-604.29066183 815.26229966 -609.4706674 799.00087922 -613.37744141 782.26074219 C-613.61914062 781.23464844 -613.86083984 780.20855469 -614.10986328 779.15136719 C-620.37509838 752.20271959 -624.74063807 724.88692413 -627.68994141 697.38574219 C-627.77125305 696.62786407 -627.8525647 695.86998596 -627.93634033 695.08914185 C-629.55032326 679.84127238 -630.53736585 664.70006847 -630.54541016 649.36230469 C-630.54864124 647.87421643 -630.55200652 646.38612845 -630.55549622 644.89804077 C-630.56142992 641.79709135 -630.56334234 638.69616953 -630.56274414 635.59521484 C-630.56266329 632.4734106 -630.56955061 629.35175437 -630.58325195 626.22998047 C-630.66054386 608.3527947 -630.40829356 590.67713567 -628.63215637 572.86656189 C-628.28724413 569.33799371 -627.99593403 565.80565134 -627.70639038 562.27217102 C-625.86127503 540.68227838 -622.11475525 519.38660124 -617.37744141 498.26074219 C-617.12091797 497.09671875 -616.86439453 495.93269531 -616.60009766 494.73339844 C-608.09337754 456.26999888 -596.3967868 418.29483138 -580.37744141 382.26074219 C-579.75434082 380.84752686 -579.75434082 380.84752686 -579.11865234 379.40576172 C-567.16325733 352.40809053 -553.91288113 326.36939295 -538.37744141 301.26074219 C-537.75949707 300.26010742 -537.14155273 299.25947266 -536.50488281 298.22851562 C-521.75085369 274.44696106 -505.42135453 251.66933381 -487.37744141 230.26074219 C-486.48802927 229.1970147 -485.59871199 228.13320789 -484.70947266 227.06933594 C-479.79237125 221.20581828 -474.80049515 215.42735821 -469.64306641 209.77246094 C-468.38020611 208.37242789 -467.12371228 206.96631699 -465.89286804 205.53805542 C-461.6938406 200.66705092 -457.30972801 196.04626388 -452.75634766 191.50683594 C-451.70096046 190.45001366 -451.70096046 190.45001366 -450.62425232 189.37184143 C-449.14729493 187.89420852 -447.66909398 186.41781762 -446.18969727 184.94262695 C-443.94579056 182.70407737 -441.70727436 180.46023746 -439.46923828 178.21582031 C-438.02359523 176.77083815 -436.57764195 175.32616627 -435.13134766 173.88183594 C-434.4727626 173.22122665 -433.81417755 172.56061737 -433.13563538 171.87998962 C-429.25121599 168.0147774 -425.25808733 164.32988576 -421.10699463 160.75218201 C-418.88771101 158.83843462 -416.72772093 156.86292417 -414.56494141 154.88574219 C-410.2209934 150.96624101 -405.75309522 147.23695008 -401.20166016 143.56152344 C-399.33240622 142.03871491 -397.48033585 140.49454474 -395.64697266 138.92871094 C-387.60970586 132.06654797 -379.15185112 125.91521774 -370.5390625 119.80078125 C-368.58754164 118.41042733 -366.64614767 117.00760172 -364.70947266 115.59667969 C-310.34805617 76.08294303 -246.7479072 44.03059796 -181.86083984 25.95703125 C-179.12356265 25.1895603 -176.39528296 24.39382053 -173.66650391 23.59667969 C-145.85282871 15.54135299 -117.95969098 9.80371848 -89.35211182 5.55566406 C-87.57771117 5.29065297 -85.80440355 5.01834791 -84.03125 4.74511719 C-72.53187519 2.98153764 -61.02703386 1.91530877 -49.41650391 1.19824219 C-48.35736094 1.13262463 -48.35736094 1.13262463 -47.27682114 1.06568146 C-31.51894359 0.11385691 -15.78265547 -0.04877779 0 0 Z " fill="#6CE4E7" transform="translate(999.37744140625,368.7392578125)"/>
<path d="M0 0 C73.445625 -0.061875 73.445625 -0.061875 148.375 -0.125 C163.84165527 -0.14320801 179.30831055 -0.16141602 195.24365234 -0.18017578 C214.11450195 -0.18920898 214.11450195 -0.18920898 222.94570923 -0.19088745 C229.12028526 -0.1927525 235.2948251 -0.2000888 241.46939087 -0.21115112 C248.59277504 -0.22389445 255.71612449 -0.22966891 262.83952013 -0.2268899 C266.48233743 -0.22568662 270.12507718 -0.22757597 273.7678802 -0.23843026 C277.67335673 -0.24999625 281.57873064 -0.24597841 285.48422241 -0.24050903 C286.61427011 -0.24633436 287.74431782 -0.25215969 288.90860939 -0.25816154 C309.15990236 -0.18196737 326.84502899 7.12119803 341.31640625 21.26171875 C347.12413781 27.18780292 351.38880446 33.30900417 355.25 40.625 C355.57967773 41.22723389 355.90935547 41.82946777 356.24902344 42.44995117 C362.00009519 53.91236107 362.46204496 67.07147226 362.3984375 79.62890625 C362.40046785 81.07608689 362.40338716 82.52326652 362.40713501 83.97044373 C362.41151197 86.97640908 362.40527847 89.9821037 362.39111328 92.98803711 C362.37400835 96.79897612 362.38390024 100.60928149 362.40183067 104.42019749 C362.41278216 107.40004569 362.40917108 110.37974889 362.4014473 113.35960197 C362.3994773 114.76311256 362.40178879 116.16663728 362.40888596 117.5701313 C362.47977405 135.51360861 358.44502772 149.6936279 348.55078125 164.58984375 C347.20457951 166.6820515 346.05869547 168.75222785 345 171 C345.59167969 171.81082031 346.18335938 172.62164063 346.79296875 173.45703125 C359.95709713 191.77427802 362.46486037 208.15463741 362.29296875 230.26953125 C362.28736293 232.40329183 362.2830975 234.5370563 362.28010559 236.67082214 C362.26873444 242.24552354 362.23933497 247.81998478 362.20599365 253.39459229 C362.16968301 260.10534961 362.15609477 266.81618792 362.13863373 273.52701569 C362.10969215 283.68484338 362.05215099 293.84214569 362 304 C346.16 304 330.32 304 314 304 C313.97421875 297.52375 313.9484375 291.0475 313.921875 284.375 C313.89669894 280.2642837 313.87036016 276.15364041 313.83984375 272.04296875 C313.79155145 265.5229467 313.74749064 259.00309373 313.72900391 252.48291016 C313.7138241 247.22425333 313.67935456 241.96603977 313.63169098 236.70758057 C313.61689092 234.70464945 313.60895978 232.70165505 313.60811615 230.69866943 C313.60574063 227.88587574 313.57861382 225.07430124 313.54589844 222.26171875 C313.5509288 221.43956375 313.55595917 220.61740875 313.56114197 219.77033997 C313.43452881 212.70213639 311.23776284 207.59109381 306.625 202.25 C301.66290464 197.99677541 297.4261437 194.88493817 290.77336597 194.8613348 C289.90699412 194.85586036 289.04062227 194.85038591 288.14799672 194.84474558 C287.19567102 194.84376747 286.24334531 194.84278936 285.26216125 194.84178162 C284.25096055 194.83684364 283.23975984 194.83190566 282.19791669 194.82681805 C278.7938114 194.81140312 275.38972502 194.8030716 271.9855957 194.79467773 C269.5516849 194.78510235 267.11777577 194.77509248 264.68386841 194.76467896 C259.43572507 194.74320612 254.1875803 194.72476897 248.93941689 194.70907402 C241.35142249 194.68637644 233.763456 194.65823346 226.17548528 194.62875474 C213.864968 194.58107746 201.55443931 194.53781364 189.24389648 194.49731445 C177.28425203 194.45796022 165.32461777 194.41652284 153.36499023 194.37231445 C152.62047098 194.36956495 151.87595173 194.36681544 151.10887128 194.36398262 C144.63278241 194.34004834 138.15669412 194.31595604 131.68060589 194.29184818 C103.78709021 194.18821692 75.89354964 194.09496536 48 194 C48 230.3 48 266.6 48 304 C32.16 304 16.32 304 0 304 C0 203.68 0 103.36 0 0 Z " fill="#000000" transform="translate(532,831)"/>
<path d="M0 0 C17.49 0 34.98 0 53 0 C60.08015306 14.6271294 67.09271785 29.26984773 73.91088867 44.02050781 C78.23314098 53.36640516 82.60833118 62.68654114 87 72 C92.97755606 84.68041188 98.90558895 97.38260124 104.80078125 110.1015625 C108.12839621 117.28053631 111.46720603 124.45425212 114.8125 131.625 C115.09964874 132.24054749 115.38679749 132.85609497 115.68264771 133.49029541 C120.78851651 144.4320794 125.92901992 155.35744106 131.07800293 166.2789917 C134.62528562 173.80384877 138.16325077 181.33257643 141.65625 188.8828125 C141.94712997 189.51128082 142.23800995 190.13974915 142.53770447 190.78726196 C143.88725293 193.70448218 145.23394552 196.62297211 146.57641602 199.54345703 C149.19109727 205.20692226 151.88472778 210.82028708 154.68530273 216.39355469 C155.00579338 217.03287933 155.32628403 217.67220398 155.65648651 218.3309021 C156.43697765 219.8876092 157.21839155 221.4438536 158 223 C158.43915678 222.12076465 158.87831356 221.24152929 159.33077812 220.33565044 C170.05549425 198.86394072 180.78256454 177.39340838 191.51205254 155.92408276 C196.70086182 145.54132515 201.88892743 135.15819724 207.07519531 124.77416992 C211.59969126 115.71515767 216.12563051 106.65686818 220.65324795 97.5994156 C223.04675157 92.81111366 225.43956929 88.02247195 227.83065414 83.23296165 C230.08933543 78.70872238 232.34997084 74.1854646 234.6119976 69.66289711 C235.43413121 68.01835873 236.25559932 66.37348743 237.07628441 64.72822571 C241.78759218 55.28440123 246.59017008 45.89669345 251.5345124 36.57244033 C255.52340212 29.04734572 259.33614092 21.44005995 263.125 13.8125 C266.528125 6.9753125 266.528125 6.9753125 270 0 C280.23 0 290.46 0 301 0 C302.38839584 2.7790123 303.77679169 5.5580246 305.20726013 8.42124939 C317.92652142 33.87965268 330.64775956 59.33706713 343.37116667 84.79339867 C345.03725457 88.12682524 346.70332505 91.46026052 348.36938477 94.79370117 C348.70108069 95.45735534 349.03277662 96.12100951 349.37452395 96.80477441 C354.7518796 107.5638422 360.12782245 118.32361532 365.50324749 129.08364778 C371.01510603 140.116702 376.52847288 151.14900151 382.04325348 162.18059546 C385.44868903 168.99284164 388.85293345 175.80568038 392.25567747 182.61927141 C394.86089895 187.83560354 397.46821422 193.05088724 400.07633209 198.26577187 C401.14896519 200.41131452 402.2209062 202.55720333 403.29212379 204.70345306 C404.74816974 207.62047776 406.20663894 210.53627767 407.66575623 213.45176697 C408.09473864 214.31264465 408.52372106 215.17352233 408.96570295 216.06048721 C409.35435091 216.83579208 409.74299887 217.61109694 410.14342403 218.4098959 C410.48023597 219.08389948 410.8170479 219.75790307 411.16406626 220.45233101 C411.90471406 222.00008532 411.90471406 222.00008532 413 223 C421.42819278 205.19853855 429.84333685 187.39236225 438.11621094 169.51806641 C442.3541119 160.3700186 446.63930705 151.24484198 450.9375 142.125 C455.97964297 131.42650983 461.00546301 120.72080098 466 110 C470.99453728 99.2791984 476.02048375 88.57355027 481.0625 77.875 C485.92563763 67.55530228 490.76603214 57.2258979 495.5625 46.875 C500.10463318 37.07657077 504.65500483 27.2820794 509.22872925 17.49835205 C509.90621125 16.0483199 510.58291607 14.59792437 511.25881958 13.14715576 C512.19650915 11.13488507 513.13694924 9.12392324 514.078125 7.11328125 C514.61856445 5.95610596 515.15900391 4.79893066 515.71582031 3.60668945 C517 1 517 1 518 0 C519.65738443 -0.09346915 521.31874644 -0.11744977 522.97875977 -0.11352539 C524.03978409 -0.11344986 525.10080841 -0.11337433 526.19398499 -0.11329651 C527.348134 -0.10813522 528.50228302 -0.10297394 529.69140625 -0.09765625 C530.86638168 -0.0962413 532.04135712 -0.09482635 533.25193787 -0.09336853 C537.02215064 -0.08774992 540.79230504 -0.07519426 544.5625 -0.0625 C547.11132727 -0.0574874 549.66015547 -0.05292408 552.20898438 -0.04882812 C558.47267633 -0.03777444 564.73633399 -0.02101821 571 0 C569.54956694 4.68601452 567.66046592 9.06256565 565.54296875 13.4765625 C565.20401077 14.1905722 564.8650528 14.90458191 564.51582336 15.64022827 C563.78822182 17.17214609 563.05910614 18.70334551 562.32861328 20.23388672 C560.38266757 24.31146317 558.44794695 28.39436524 556.51171875 32.4765625 C556.12301605 33.29529846 555.73431335 34.11403442 555.33383179 34.95758057 C552.01507675 41.95307028 548.74779912 48.97125871 545.5 56 C540.57320208 66.65009743 535.58050687 77.26765184 530.5625 87.875 C525.03930461 99.55038426 519.54203962 111.23705696 514.08966064 122.94567871 C509.39882721 133.018037 504.67459818 143.07432394 499.9375 153.125 C495.113524 163.36028349 490.31521763 173.60638725 485.5625 183.875 C480.23299177 195.38874103 474.82341945 206.86330671 469.39675903 218.33148193 C464.72616735 228.20358815 460.08556643 238.08804374 455.5 248 C450.34117463 259.14854705 445.11979001 270.26668388 439.875 281.375 C439.50270264 282.16406738 439.13040527 282.95313477 438.74682617 283.76611328 C437.68362613 286.01895561 436.61937139 288.27129611 435.5546875 290.5234375 C435.2396225 291.19096039 434.9245575 291.85848328 434.59994507 292.54623413 C432.78020466 296.39082613 430.90287464 300.19425071 429 304 C418.77 304 408.54 304 398 304 C396.74434235 301.48646408 395.48868469 298.97292816 394.19497681 296.38322449 C382.64141127 273.25613301 371.08582064 250.13005426 359.52806173 227.00505812 C358.00876412 223.96521242 356.48948405 220.92535794 354.97021484 217.88549805 C354.66779524 217.28039653 354.36537564 216.67529502 354.05379181 216.05185709 C349.17719653 206.29433245 344.30201807 196.5361006 339.42737634 186.77759989 C334.41383489 176.74111724 329.39871037 166.70542653 324.38224638 156.67040426 C321.56955847 151.04373177 318.75756066 145.41671693 315.9472847 139.78883934 C313.29462353 134.47665918 310.64002455 129.16545171 307.98402405 123.85494041 C307.01676063 121.92014159 306.05016699 119.98500772 305.08434677 118.04948807 C299.86116741 107.58320584 294.57529831 97.16303982 289.02087748 86.86758441 C288.6240635 86.12501543 288.22724952 85.38244645 287.81841087 84.61737537 C287.46628607 83.96477137 287.11416127 83.31216737 286.75136602 82.6397875 C286 81 286 81 286 79 C285.34 79 284.68 79 284 79 C283.76016923 79.80456225 283.52033846 80.60912451 283.27324009 81.43806744 C281.71101034 85.80845842 279.71184128 89.84921989 277.62815857 93.99092102 C277.18204808 94.88555642 276.73593759 95.78019182 276.2763086 96.70193738 C274.78232284 99.69553921 273.28264144 102.6862504 271.78295898 105.67700195 C270.71007068 107.82385158 269.63752878 109.97087435 268.56530762 112.11805725 C265.95607195 117.34087251 263.34313123 122.56182143 260.72845393 127.78191433 C257.68484813 133.85873222 254.64543296 139.93764269 251.60617853 146.01663771 C246.18548546 156.85852412 240.76093329 167.69847508 235.33422852 178.53735352 C230.06504559 189.06161731 224.79867835 199.58728376 219.53540039 210.11450195 C219.21090872 210.76352524 218.88641705 211.41254854 218.55209231 212.0812392 C218.22816774 212.7291287 217.90424317 213.37701819 217.5705027 214.0445407 C211.58051719 226.02520081 205.58790377 238.00454475 199.59405915 249.98327458 C197.47242059 254.2235313 195.35156651 258.46417984 193.23095512 262.70495033 C190.38071683 268.40467525 187.52825067 274.10328182 184.67427826 279.80113792 C183.62422533 281.89831145 182.57485846 283.99582863 181.52620888 286.09370422 C180.10093889 288.94473134 178.67323353 291.79452512 177.24485779 294.64399719 C176.8250215 295.48521836 176.40518522 296.32643953 175.97262663 297.19315225 C173.11417902 302.88582098 173.11417902 302.88582098 172 304 C169.70848583 304.08790975 167.41427476 304.10694038 165.12109375 304.09765625 C164.09110008 304.09553383 164.09110008 304.09553383 163.04029846 304.09336853 C160.83932199 304.08775479 158.63844591 304.07520007 156.4375 304.0625 C154.94856917 304.05748676 153.45963676 304.05292355 151.97070312 304.04882812 C148.31376925 304.03778093 144.65689442 304.02050713 141 304 C140.68998047 303.32984863 140.37996094 302.65969727 140.06054688 301.96923828 C133.4206495 287.62387047 126.74064243 273.29832014 120 259 C114.60547092 247.55683593 109.24939269 236.0971922 103.93359375 224.6171875 C99.65833774 215.39439936 95.33465999 206.19498221 91 197 C85.60550418 185.55682033 80.24939278 174.09719238 74.93359375 162.6171875 C70.65833774 153.39439936 66.33465999 144.19498221 62 135 C56.60550418 123.55682033 51.24939278 112.09719238 45.93359375 100.6171875 C41.65833681 91.39439735 37.33444425 82.19508541 33 73 C26.4788649 59.16381203 20.00754665 45.30580678 13.58642578 31.42285156 C12.19555068 28.4219176 10.79953574 25.42348266 9.40054321 22.42633057 C8.54207557 20.58626415 7.68527643 18.74543109 6.82910156 16.90429688 C5.75709465 14.59957767 4.68234525 12.29613155 3.60449219 9.99414062 C3.13043945 8.97255859 2.65638672 7.95097656 2.16796875 6.8984375 C1.53797974 5.54758057 1.53797974 5.54758057 0.89526367 4.16943359 C0 2 0 2 0 0 Z " fill="#010101" transform="translate(933,831)"/>
<path d="M0 0 C31.29614056 -0.11029088 62.59209314 -0.20258703 93.88836747 -0.25532665 C97.5857349 -0.26157995 101.28310193 -0.26805159 104.98046875 -0.2746582 C105.71652749 -0.27596976 106.45258624 -0.27728131 107.21094979 -0.2786326 C119.11883341 -0.30037105 131.02659595 -0.3397839 142.93440782 -0.38576398 C155.1589227 -0.4325722 167.38337431 -0.4603046 179.60797513 -0.47044247 C187.14726903 -0.47729264 194.6862207 -0.49890385 202.22540922 -0.53958233 C208.01291407 -0.56921293 213.80020111 -0.57226313 219.58776665 -0.56553841 C221.95727199 -0.56691188 224.32679052 -0.57682995 226.69621849 -0.59602737 C229.93807702 -0.62100093 233.17848572 -0.61488841 236.42037964 -0.60127258 C237.35231545 -0.61583679 238.28425127 -0.630401 239.24442756 -0.64540654 C246.74656795 -0.56056632 253.302975 1.62254625 258.92156398 6.75546378 C266.16330937 14.49211548 266.46710197 22.27078712 266.46875 32.45703125 C266.47636353 33.75517258 266.48397705 35.0533139 266.49182129 36.39079285 C266.50521975 39.13179181 266.50685666 41.87250299 266.50097656 44.61352539 C266.49509302 48.10033495 266.52563459 51.58574601 266.56609344 55.07228565 C266.59839705 58.42974118 266.59385396 61.78692137 266.59375 65.14453125 C266.61014526 66.38338577 266.62654053 67.6222403 266.64343262 68.89863586 C266.5759944 77.43508009 265.17233063 84.46337741 259.24450684 90.9087677 C252.49675307 97.27830496 245.73288698 98.44392201 236.78114319 98.36076355 C235.76652478 98.36332682 234.75190637 98.3658901 233.70654196 98.36853105 C230.31469649 98.37346323 226.92329844 98.35698492 223.53149414 98.34057617 C221.09699514 98.33972978 218.66249538 98.34020528 216.22799683 98.34190369 C210.9907863 98.34258632 205.7536765 98.33409011 200.51649666 98.31719017 C192.94449709 98.29277191 185.37255169 98.28499202 177.80051702 98.2812262 C165.51436011 98.27466614 153.22826308 98.25471709 140.94213867 98.22631836 C129.00985004 98.19876624 117.0775777 98.17753831 105.14526367 98.16479492 C104.04134041 98.16361267 104.04134041 98.16361267 102.91511566 98.16240653 C99.22294461 98.15849131 95.53077343 98.15470021 91.83860219 98.15097082 C61.22568244 98.11988877 30.61287263 98.0645932 0 98 C0 65.66 0 33.32 0 0 Z " fill="#FEFDF9" transform="translate(580,879)"/>
</svg>
